<svg width="24" height="24" viewBox="0 0 24 24" fill="none" xmlns="http://www.w3.org/2000/svg">
<path fill-rule="evenodd" clip-rule="evenodd" d="M19 19L5 19L5 5L19 5L19 19ZM20 20L19 20L5 20L4 20L4 19L4 5L4 4L5 4L19 4L20 4L20 5L20 19L20 20ZM8.5 12.5C8.22386 12.5 8 12.2761 8 12C8 11.7239 8.22386 11.5 8.5 11.5L14.2929 11.5L12.1464 9.35355C11.9512 9.15829 11.9512 8.84171 12.1464 8.64645C12.3417 8.45118 12.6583 8.45118 12.8536 8.64645L15.8536 11.6464C16.0488 11.8417 16.0488 12.1583 15.8536 12.3536L12.8536 15.3536C12.6583 15.5488 12.3417 15.5488 12.1464 15.3536C11.9512 15.1583 11.9512 14.8417 12.1464 14.6464L14.2929 12.5L8.5 12.5Z" fill="#B7A051"/>
</svg>
