<svg width="39" height="20" viewBox="0 0 39 20" fill="none" xmlns="http://www.w3.org/2000/svg">
<path d="M22.361 2.33899C22.2525 3.69492 21.5473 4.42938 20.2453 4.54238H19.1341C18.84 5.23852 18.6092 5.96168 18.4415 6.71186C18.3761 7.00483 18.3194 7.29861 18.2717 7.59323H20.3104C20.918 7.59323 21.4388 7.80791 21.8728 8.23729C22.1297 8.51974 22.0805 8.80911 22.0229 9.14775C21.9929 9.32392 21.9607 9.51342 21.9681 9.72222L22.4912 17.7966C22.48 18.1109 23.2781 18.3983 24.0011 18.6586C24.6817 18.9037 25.2958 19.1248 25.1065 19.322C24.8196 19.6208 26.528 19.8211 27.3965 19.9229C27.7761 19.9674 27.995 19.9931 27.8171 20L36.7194 20C37.3364 20 37.8652 19.7966 38.3059 19.3898C38.7466 18.9604 38.978 18.4294 39 17.7966C38.8678 16.3729 38.1076 15.5932 36.7194 15.4576H25.8122C24.9748 15.4124 24.2697 15.096 23.6968 14.5085C23.1239 13.8983 22.7163 13.1977 22.4739 12.4068C22.2535 11.6158 22.1434 10.8136 22.1434 10C22.1434 9.18644 22.2646 8.39548 22.507 7.62712C22.7493 6.83616 23.146 6.13559 23.6968 5.52542C24.2697 4.91525 24.9748 4.58757 25.8122 4.54237H36.7194C37.3364 4.54237 37.8652 4.33898 38.3059 3.9322C38.7686 3.50282 39 2.97175 39 2.33898C38.8678 0.915254 38.1076 0.135593 36.7194 0H32.4886C32.654 0.00615346 32.3541 0.0282249 31.8378 0.0662142C30.4579 0.167742 27.5329 0.382963 27.8171 0.711871C28.0142 0.927938 26.7759 1.16466 25.4297 1.42205C23.9597 1.70307 22.361 2.00871 22.361 2.33899Z" fill="white"/>
<path d="M21.8728 8.23729C21.4388 7.80791 20.918 7.59323 20.3104 7.59323H18.2717C18.1425 8.38947 18.078 9.19172 18.078 10C18.078 11.4915 18.2873 12.9492 18.7059 14.3729C19.1466 15.7966 19.8628 17.0734 20.8543 18.2034C21.8459 19.3107 23.1129 19.9096 24.6553 20L27.8171 20C27.995 19.9931 27.7761 19.9674 27.3965 19.9229C26.528 19.8211 24.8196 19.6208 25.1065 19.322C25.2958 19.1248 24.6817 18.9037 24.0011 18.6586C23.2781 18.3983 22.48 18.1109 22.4912 17.7966L21.9681 9.72222C21.9607 9.51342 21.9929 9.32392 22.0229 9.14775C22.0805 8.80911 22.1297 8.51974 21.8728 8.23729Z" fill="white"/>
<path d="M32.4886 0H24.6553C23.5316 0.0225989 22.529 0.384181 21.6476 1.08475C20.7882 1.78531 20.0941 2.63277 19.5653 3.62712C19.409 3.92683 19.2653 4.23192 19.1341 4.54238H20.2453C21.5473 4.42938 22.2525 3.69492 22.361 2.33899C22.361 2.00871 23.9597 1.70307 25.4297 1.42205C26.7759 1.16466 28.0142 0.927938 27.8171 0.711871C27.5329 0.382963 30.4579 0.167742 31.8378 0.0662142C32.3541 0.0282249 32.654 0.00615346 32.4886 0Z" fill="white"/>
<path d="M24.6553 0L6.50975 6.35783e-06C4.99081 0.0904018 3.74311 0.700571 2.76665 1.83051C1.79018 2.93786 1.08496 4.20339 0.650975 5.62712C0.216992 7.05085 0 8.50848 0 10C0 11.4915 0.206142 12.9492 0.618427 14.3729C1.05241 15.7966 1.75763 17.0734 2.7341 18.2034C3.73226 19.3107 4.99081 19.9096 6.50975 20H27.8171L24.6553 20C23.1129 19.9096 21.8459 19.3107 20.8543 18.2034C19.8628 17.0734 19.1466 15.7966 18.7059 14.3729C18.2873 12.9492 18.078 11.4915 18.078 10C18.078 9.19172 18.1425 8.38947 18.2717 7.59323H9.17875C8.57118 7.59323 8.0504 7.80791 7.61641 8.23729C7.20413 8.68927 6.99799 9.23164 6.99799 9.86441C6.99799 10.4972 7.20413 11.0396 7.61641 11.4915C8.0504 11.9209 8.57118 12.1356 9.17875 12.1356H17.5112C17.9018 12.1356 18.108 12.3616 18.1297 12.8136V14.7797C18.108 15.209 17.9018 15.435 17.5112 15.4576H7.61641C6.79184 15.4124 6.10832 15.0847 5.56584 14.4746C5.02336 13.8644 4.62192 13.1751 4.36153 12.4068C4.12284 11.6158 4.0035 10.8136 4.0035 10C4.0035 9.18644 4.12284 8.39548 4.36153 7.62712C4.62192 6.83616 5.02336 6.1356 5.56584 5.52543C6.10832 4.91526 6.79184 4.58758 7.61641 4.54238H19.1341C19.2653 4.23192 19.409 3.92683 19.5653 3.62712C20.0941 2.63277 20.7882 1.78531 21.6476 1.08475C22.529 0.384181 23.5316 0.0225989 24.6553 0Z" fill="white"/>
</svg>
