<svg width="24" height="24" viewBox="0 0 24 24" fill="none" xmlns="http://www.w3.org/2000/svg">
<path fill-rule="evenodd" clip-rule="evenodd" d="M5 5H19V19H5V5ZM4 4H5H19H20V5V19V20H19H5H4V19V5V4ZM15.5 11.5C15.7761 11.5 16 11.7239 16 12C16 12.2761 15.7761 12.5 15.5 12.5H9.70711L11.8536 14.6464C12.0488 14.8417 12.0488 15.1583 11.8536 15.3536C11.6583 15.5488 11.3417 15.5488 11.1464 15.3536L8.14645 12.3536C7.95118 12.1583 7.95118 11.8417 8.14645 11.6464L11.1464 8.64645C11.3417 8.45118 11.6583 8.45118 11.8536 8.64645C12.0488 8.84171 12.0488 9.15829 11.8536 9.35355L9.70711 11.5H15.5Z" fill="#B7A051"/>
</svg>
