<svg width="24" height="24" viewBox="0 0 24 24" fill="none" xmlns="http://www.w3.org/2000/svg">
<path d="M20.3178 4.36032C18.7615 3.6461 17.1194 3.13636 15.4323 2.84382C15.417 2.84124 15.4013 2.84346 15.3873 2.85018C15.3733 2.85689 15.3618 2.86777 15.3543 2.88132C15.1428 3.25632 14.9088 3.74682 14.7453 4.13082C12.9267 3.85483 11.0768 3.85483 9.25825 4.13082C9.07588 3.70304 8.86955 3.28588 8.64025 2.88132C8.63256 2.86792 8.62099 2.85717 8.60707 2.85047C8.59314 2.84378 8.57752 2.84146 8.56225 2.84382C6.87485 3.13518 5.23255 3.64496 3.67675 4.36032C3.66344 4.3654 3.65231 4.37494 3.64525 4.38732C0.534253 9.03582 -0.319247 13.5703 0.0992533 18.0478C0.100753 18.0688 0.114253 18.0898 0.130753 18.1033C1.94236 19.4452 3.96865 20.4698 6.12325 21.1333C6.13847 21.1381 6.15481 21.1379 6.16992 21.1328C6.18502 21.1277 6.1981 21.1179 6.20725 21.1048C6.66925 20.4748 7.08025 19.8103 7.43425 19.1113C7.43914 19.1018 7.44193 19.0913 7.44242 19.0806C7.44292 19.0699 7.44112 19.0592 7.43714 19.0493C7.43316 19.0393 7.4271 19.0303 7.41935 19.0229C7.41161 19.0155 7.40237 19.0098 7.39225 19.0063C6.746 18.7579 6.1201 18.4595 5.52025 18.1138C5.5093 18.1075 5.50008 18.0985 5.49344 18.0877C5.48679 18.077 5.48293 18.0647 5.48218 18.0521C5.48144 18.0394 5.48384 18.0268 5.48918 18.0153C5.49451 18.0039 5.50261 17.9939 5.51275 17.9863C5.63875 17.8918 5.76475 17.7928 5.88475 17.6938C5.89535 17.6853 5.90807 17.6798 5.92155 17.678C5.93502 17.6761 5.94875 17.678 5.96125 17.6833C9.88975 19.4773 14.1423 19.4773 18.0228 17.6833C18.0357 17.6775 18.05 17.6755 18.064 17.6773C18.078 17.6792 18.0913 17.6849 18.1023 17.6938C18.2223 17.7928 18.3483 17.8918 18.4743 17.9863C18.4845 17.9938 18.4927 18.0037 18.4981 18.0151C18.5036 18.0265 18.5061 18.039 18.5055 18.0517C18.5049 18.0643 18.5012 18.0766 18.4947 18.0874C18.4882 18.0983 18.4791 18.1073 18.4683 18.1138C17.8698 18.4626 17.2431 18.7607 16.5948 19.0048C16.5847 19.0087 16.5756 19.0146 16.568 19.0222C16.5604 19.0298 16.5545 19.039 16.5507 19.049C16.5469 19.0591 16.5452 19.0698 16.5458 19.0805C16.5465 19.0913 16.5493 19.1018 16.5543 19.1113C16.9143 19.8088 17.3268 20.4748 17.7798 21.1048C17.7889 21.1179 17.802 21.1277 17.8171 21.1328C17.8322 21.1379 17.8485 21.1381 17.8638 21.1333C20.022 20.4719 22.0516 19.4472 23.8653 18.1033C23.8743 18.097 23.8818 18.0887 23.8872 18.0791C23.8926 18.0695 23.8959 18.0588 23.8968 18.0478C24.3978 12.8713 23.0583 8.37432 20.3478 4.38882C20.345 4.38223 20.3409 4.3763 20.3358 4.37139C20.3306 4.36648 20.3245 4.36271 20.3178 4.36032ZM8.02075 15.3208C6.83725 15.3208 5.86375 14.2348 5.86375 12.9028C5.86375 11.5693 6.81925 10.4833 8.02075 10.4833C9.23125 10.4833 10.1958 11.5783 10.1778 12.9028C10.1778 14.2348 9.22225 15.3208 8.02075 15.3208ZM15.9948 15.3208C14.8128 15.3208 13.8378 14.2348 13.8378 12.9028C13.8378 11.5693 14.7933 10.4833 15.9948 10.4833C17.2053 10.4833 18.1713 11.5783 18.1518 12.9028C18.1518 14.2348 17.2053 15.3208 15.9948 15.3208Z" fill="#7A6C42"/>
</svg>
